<!DOCTYPE svg PUBLIC "-//W3C//DTD SVG 1.1//EN" "http://www.w3.org/Graphics/SVG/1.1/DTD/svg11.dtd">
<!-- Uploaded to: SVG Repo, www.svgrepo.com, Transformed by: SVG Repo Mixer Tools -->
<svg fill="#392714" width="800px" height="800px" viewBox="0 0 24 24" xmlns="http://www.w3.org/2000/svg" stroke="#392714">
<g id="SVGRepo_bgCarrier" stroke-width="0"/>
<g id="SVGRepo_tracerCarrier" stroke-linecap="round" stroke-linejoin="round"/>
<g id="SVGRepo_iconCarrier"> <g data-name="Layer 2"> <g data-name="edit"> <rect width="24" height="24" opacity="0"/> <path d="M19.4 7.34L16.66 4.6A2 2 0 0 0 14 4.53l-9 9a2 2 0 0 0-.57 1.21L4 18.91a1 1 0 0 0 .29.8A1 1 0 0 0 5 20h.09l4.17-.38a2 2 0 0 0 1.21-.57l9-9a1.92 1.92 0 0 0-.07-2.71zM9.08 17.62l-3 .28.27-3L12 9.32l2.7 2.7zM16 10.68L13.32 8l1.95-2L18 8.73z"/> </g> </g> </g>
</svg>